PathFileType	4	(X/Y/Z)	s10c0301.trc
DataRate	CameraRate	NumFrames	NumMarkers	Units	OrigDataRate	OrigDataStartFrame	OrigNumFrames
200	200	6	50	mm	200	500	2000
Frame#	Time	racr			lacr			c7			jug			rlel			rdr			llel			ldr			s2			lic			ric			lasi			rasi			rpsi			lpsi			rgt			lgt			rth1			rth2			rth3			rth4			rlfc			rmfc			rsh1			rsh2			rsh3			rsh4			rlmal			rmmal			rcal			rtoe			rmt5			lth1			lth2			lth4			lth3			llfc			lmfc			llmal			lmmal			lcal			lmt5			lsh1			lsh2			lsh3			lsh4			ltoe			SBIKE			LBIKE			RBIKE			
		X1	Y1	Z1	X2	Y2	Z2	X3	Y3	Z3	X4	Y4	Z4	X5	Y5	Z5	X6	Y6	Z6	X7	Y7	Z7	X8	Y8	Z8	X9	Y9	Z9	X10	Y10	Z10	X11	Y11	Z11	X12	Y12	Z12	X13	Y13	Z13	X14	Y14	Z14	X15	Y15	Z15	X16	Y16	Z16	X17	Y17	Z17	X18	Y18	Z18	X19	Y19	Z19	X20	Y20	Z20	X21	Y21	Z21	X22	Y22	Z22	X23	Y23	Z23	X24	Y24	Z24	X25	Y25	Z25	X26	Y26	Z26	X27	Y27	Z27	X28	Y28	Z28	X29	Y29	Z29	X30	Y30	Z30	X31	Y31	Z31	X32	Y32	Z32	X33	Y33	Z33	X34	Y34	Z34	X35	Y35	Z35	X36	Y36	Z36	X37	Y37	Z37	X38	Y38	Z38	X39	Y39	Z39	X40	Y40	Z40	X41	Y41	Z41	X42	Y42	Z42	X43	Y43	Z43	X44	Y44	Z44	X45	Y45	Z45	X46	Y46	Z46	X47	Y47	Z47	X48	Y48	Z48	X49	Y49	Z49	X50	Y50	Z50	
500	2.5000	670.286686	1218.319429	-55.355317	557.197389	1313.526663	-365.433216	601.000640	1324.243102	-193.172491	585.352117	1180.719039	-212.875289	522.488945	1013.813446	60.758689	642.767225	878.900491	-49.172343	501.639843	1058.007183	-477.463792	643.560549	893.767497	-407.743512	74.562977	1128.105212	-141.319314	208.983940	1175.850079	-312.981197	283.216628	1107.190924	-22.806173	237.341603	1083.630633	-303.319705	273.373849	1022.105306	-55.717969	132.781405	1171.235886	-81.328920	117.112617	1200.247130	-187.470467	167.209685	999.639888	7.973562	110.573928	1048.826317	-366.200170	212.351389	867.603084	14.193962	257.649084	795.939352	-12.533831	258.701588	712.094891	-30.530114	291.451719	809.666564	-21.014131	297.654205	616.906093	-59.563864	276.416851	613.656755	-169.361405	241.285060	516.418986	-23.731843	238.167553	429.396056	-39.755124	194.872255	354.504702	-40.740892	265.243730	425.125770	-67.305745	161.690655	263.608570	-53.445674	177.584575	270.556594	-136.286540	103.952198	263.575223	-98.002462	319.820260	150.664716	-105.957334	236.776952	158.126198	-39.687498	201.694111	969.091420	-415.774966	284.553998	943.247917	-422.193974	304.515302	970.399254	-407.789100	343.541404	879.523371	-441.691900	417.542943	805.735516	-448.195656	437.647518	778.908308	-328.451973	90.302048	617.200516	-384.644381	115.293005	610.576666	-306.433654	35.916447	631.429623	-332.275400	113.949242	472.153958	-397.769243	306.651806	751.455175	-459.621747	253.157872	687.187490	-432.322713	170.109481	660.161027	-413.692865	274.751808	666.514947	-408.795554	189.722131	428.156259	-343.914728	-217.690139	833.544445	-213.364825	-103.953428	80.781577	-418.545647	-103.976694	80.315796	-18.262594	
501	2.5050	670.354445	1220.979327	-57.114438	556.973487	1314.487630	-368.493845	601.317780	1325.089026	-195.851759	585.660936	1181.444384	-215.147168	524.791042	1015.951434	59.976988	642.926884	878.709398	-49.229666	500.577225	1057.956130	-478.429865	643.412764	894.017346	-407.753045	75.913109	1128.371228	-140.473793	208.422159	1176.494986	-312.380046	284.775037	1107.420158	-23.089962	237.295451	1084.360997	-303.274045	274.390024	1022.562906	-55.970885	134.145972	1171.549991	-80.365999	117.620877	1200.615986	-186.127850	167.707577	999.920852	8.318649	110.834680	1049.990590	-365.413575	210.338170	867.326793	14.757077	254.271347	795.049992	-12.020728	253.935007	711.133836	-29.950244	288.286193	808.173333	-20.517762	291.401368	615.544270	-59.008037	269.984252	612.325275	-168.623292	235.010830	514.949048	-23.262833	232.419472	427.899497	-39.229350	189.423127	352.765200	-40.392309	259.611472	423.741813	-66.682925	157.087779	261.954916	-53.215503	172.677385	268.869438	-135.795163	99.556508	263.000239	-97.843623	313.711823	146.595112	-106.079735	230.871517	155.439929	-39.744025	202.998205	970.717725	-415.109591	286.241511	945.742913	-420.638547	305.832837	973.407337	-406.903166	346.019484	883.016989	-440.666420	421.536613	810.319233	-446.548377	441.056328	783.505760	-326.604612	95.507130	620.032194	-384.640076	120.315459	613.170075	-306.664930	40.201468	633.336636	-332.743941	120.312087	475.111321	-397.790661	310.789411	755.102905	-458.278072	257.839966	690.455754	-431.281469	174.844716	662.959157	-413.043759	279.454312	669.965109	-407.630362	196.691365	431.839644	-343.823361	-217.726639	833.537561	-213.400373	-104.008472	80.520789	-418.294062	-103.985071	80.310882	-18.265197	
502	2.5100	670.229754	1223.640433	-58.638302	557.053127	1315.327004	-371.558152	601.782116	1325.921208	-198.553764	586.117696	1182.139292	-217.392676	526.788610	1018.099641	59.004582	642.840982	878.315573	-49.138439	499.646841	1057.712791	-479.483683	643.352605	894.241792	-407.786460	77.821025	1128.904529	-140.043246	207.952376	1177.107411	-312.021787	286.288778	1108.083869	-23.523721	237.202103	1085.091630	-303.300280	275.413379	1023.446615	-56.375856	135.592749	1172.111812	-79.471270	118.188681	1201.251120	-184.851384	168.326610	1000.411495	8.631468	111.030539	1051.403655	-364.463338	208.635588	867.737826	15.501914	250.946356	794.429453	-11.520572	249.083984	710.478732	-29.416367	285.123920	806.893181	-19.979425	285.141817	614.420137	-58.425785	263.174472	611.115755	-167.861306	228.743556	513.758683	-22.703377	226.637073	426.654110	-38.719513	183.945356	351.416212	-40.009670	253.927364	422.575135	-66.081658	152.513347	260.609405	-53.133039	167.707469	267.267316	-135.439800	95.166931	262.482338	-97.799731	307.428669	142.667851	-106.119486	224.732275	152.948869	-39.704651	204.110555	972.499556	-414.162229	287.670101	948.542576	-419.209563	306.884103	976.340900	-405.238634	348.057583	886.722354	-439.436217	425.435415	814.888602	-444.783214	444.337474	788.208523	-324.609655	100.326076	622.241435	-384.396908	124.757255	615.663863	-305.942515	44.384258	634.705254	-332.476120	126.723836	477.825338	-397.801368	315.129596	758.887107	-456.795273	262.395483	693.566150	-430.110479	179.416511	665.545704	-412.545454	283.983041	673.257914	-406.427592	203.437361	435.645515	-344.014929	-217.762667	833.533999	-213.387820	-104.008680	80.512236	-418.274363	-103.999800	80.312416	-18.254964	
503	2.5150	669.892302	1226.364005	-59.974133	557.527620	1316.043122	-374.610906	602.635596	1327.016615	-201.760621	586.716275	1182.898439	-219.708008	528.562149	1020.174946	57.924028	643.057104	878.171145	-49.064842	498.830830	1057.155440	-480.433387	643.265098	894.573062	-408.015000	78.687951	1130.074816	-138.807434	207.550867	1177.947357	-311.868737	287.942734	1109.083895	-24.232902	237.139175	1085.788690	-303.447182	276.415268	1024.535737	-56.631348	137.128526	1172.918416	-78.685853	118.804164	1202.077515	-183.741680	169.052694	1001.259740	9.043139	111.007019	1052.874876	-363.337266	206.610516	868.103577	16.069467	247.575453	794.131695	-10.931682	244.168406	710.234642	-28.781926	282.003013	805.947785	-19.468589	278.750371	613.661254	-57.858066	255.449056	610.217276	-167.675221	222.403718	512.910622	-22.237427	220.772513	425.819425	-38.190584	178.477570	350.425069	-39.578699	248.212048	421.914682	-65.441129	147.914501	259.703224	-52.891051	163.178775	266.067367	-135.089900	90.765061	262.588352	-97.621479	301.112649	139.151435	-105.964398	218.555775	150.885401	-39.597040	205.086079	974.386995	-412.929917	288.880966	951.386124	-417.680475	307.581886	979.572241	-403.438479	350.208212	890.247356	-437.968249	428.899592	819.338346	-442.917025	447.465489	792.775950	-322.481803	104.976246	624.030820	-384.171983	129.126335	617.772016	-305.623923	48.566667	635.812108	-332.402480	133.262998	480.264086	-397.912112	319.192627	762.396938	-455.178830	266.782701	696.570191	-428.989815	183.970584	667.914750	-411.878427	288.438687	676.340285	-405.200374	210.364236	439.026104	-343.983728	-217.804982	833.532341	-213.410751	-104.013705	80.528747	-418.256495	-103.995272	80.315558	-18.243075	
504	2.5200	669.271598	1229.114737	-61.290240	558.365151	1316.415506	-377.578915	603.367252	1327.658179	-204.484420	587.401676	1183.534514	-221.752728	530.052572	1022.250202	56.687908	643.224354	878.089386	-49.075454	497.899239	1056.555434	-481.719326	643.161572	894.826520	-408.121550	77.711771	1131.699572	-136.215484	207.203852	1178.789292	-311.903125	289.511012	1110.465491	-25.069096	237.063433	1086.616313	-303.810536	277.337401	1025.639487	-57.192966	138.831322	1174.183987	-78.304598	119.583319	1203.131821	-182.669993	169.814255	1002.330209	9.393165	111.056549	1054.645239	-362.347938	204.674240	868.793559	16.720948	244.189257	793.912198	-10.418213	239.248560	710.226508	-28.049475	278.879257	805.181379	-19.085609	272.352335	613.226917	-57.183843	248.059868	609.886457	-167.219536	215.904815	512.426594	-21.545864	214.957144	425.281909	-37.585818	173.088062	349.651345	-39.064219	242.421029	421.495177	-64.766651	143.411583	258.912352	-52.654639	157.951327	265.435987	-134.442683	86.465486	262.711448	-97.396241	294.729275	135.921678	-106.130429	212.405797	149.025607	-39.594595	205.797085	976.326021	-411.355042	289.854410	954.312347	-416.001122	308.271371	982.566917	-401.708636	351.909271	893.919913	-436.429395	432.192949	823.746106	-440.908491	450.416162	797.318669	-320.270698	109.664780	625.508302	-383.991229	133.502913	619.563754	-305.328180	52.724870	636.592478	-332.470611	139.705345	482.410332	-398.019725	323.032995	765.715473	-453.506726	271.157968	699.768939	-428.186474	188.360763	670.071103	-411.266839	292.867453	679.415312	-404.118888	217.364017	442.344131	-344.032629	-217.860444	833.524544	-213.405983	-104.020282	80.528137	-418.256426	-103.989960	80.318425	-18.253690	
505	2.5250	668.508680	1231.839423	-62.580989	559.732999	1316.538009	-380.547658	604.176362	1328.185188	-207.464644	588.229934	1184.214798	-223.989957	531.333004	1024.238780	55.389144	643.378845	877.944757	-49.187309	496.968636	1055.633511	-483.090929	642.958662	895.053095	-408.237244	80.503573	1133.215421	-136.381696	206.958226	1179.802108	-312.222574	291.128210	1112.348498	-26.241565	236.954150	1087.304468	-304.274262	278.249473	1027.031048	-57.684665	140.449751	1175.435467	-77.701490	120.323761	1204.539088	-181.979124	170.758537	1003.592853	9.715527	110.964097	1056.518482	-361.286718	202.779019	869.724879	17.313712	240.831898	794.180034	-9.795634	234.327296	710.563210	-27.361169	275.678999	804.817123	-18.586690	265.941410	613.126966	-56.577758	240.401511	609.475986	-166.724256	209.773540	512.275299	-21.043678	209.153110	425.140015	-37.113096	167.660743	349.254838	-38.463693	236.773016	421.522624	-64.124866	138.901483	258.600089	-52.318113	153.624749	264.716945	-134.039615	82.430103	263.528344	-97.256271	288.256159	132.611696	-106.314770	206.183683	147.389581	-39.547605	206.321359	978.364713	-409.422491	290.584427	957.296943	-414.293850	308.731140	985.698396	-399.930950	353.329938	897.594672	-434.749719	435.146718	827.965933	-438.841939	453.145206	801.784024	-317.910569	114.254647	626.612560	-383.848292	137.735375	621.002458	-305.174330	56.657960	637.005822	-332.585766	146.137790	484.262711	-398.121889	326.711101	768.962558	-451.866865	275.182154	702.036174	-426.763532	192.637508	671.955529	-410.739771	296.872998	681.982154	-402.859847	224.575049	445.473803	-344.111206	-217.909482	833.524571	-213.397184	-104.039453	80.533709	-418.267926	-104.010058	80.329321	-18.258267	
